<svg width="490" height="120" viewBox="0 0 490 120" fill="none" xmlns="http://www.w3.org/2000/svg">
<path d="M53.5467 44.3784V22.3112C53.5467 21.4013 54.2844 20.6637 55.1943 20.6637H66.5896C67.4995 20.6637 68.2371 21.4013 68.2371 22.3112V48.3969C68.2371 50.8233 70.2041 52.7903 72.6305 52.7903H98.0297C98.9396 52.7903 99.6772 53.5279 99.6772 54.4378V64.7347C99.6772 65.6446 98.9396 66.3823 98.0297 66.3823H75.6577C73.7626 66.3823 71.9444 65.633 70.5996 64.2978L55.6677 49.473C54.3102 48.1252 53.5467 46.2913 53.5467 44.3784Z" fill="white"/>
<path d="M66.4533 75.2744V97.3416C66.4533 98.2515 65.7156 98.9891 64.8057 98.9891H53.4104C52.5005 98.9891 51.7629 98.2515 51.7629 97.3416L51.7629 71.2559C51.7629 68.8295 49.7959 66.8626 47.3695 66.8626H21.9703C21.0604 66.8626 20.3228 66.1249 20.3228 65.215V54.9181C20.3228 54.0082 21.0604 53.2705 21.9703 53.2705H44.3423C46.2374 53.2705 48.0556 54.0198 49.4004 55.355L64.3323 70.1798C65.6898 71.5276 66.4533 73.3615 66.4533 75.2744Z" fill="white"/>
<path d="M73.8695 23.7147V1.64752C73.8695 0.737618 74.6072 0 75.5171 0H86.9124C87.8223 0 88.5599 0.737619 88.5599 1.64752V27.7332C88.5599 30.1596 90.5269 32.1266 92.9533 32.1266H118.352C119.262 32.1266 120 32.8642 120 33.7741V44.071C120 44.9809 119.262 45.7186 118.352 45.7186H95.9805C94.0854 45.7186 92.2672 44.9693 90.9224 43.6341L75.9905 28.8093C74.633 27.4615 73.8695 25.6276 73.8695 23.7147Z" fill="white"/>
<path d="M46.1305 95.9371L46.1304 118.004C46.1304 118.914 45.3928 119.652 44.4829 119.652H33.0876C32.1777 119.652 31.4401 118.914 31.4401 118.004L31.4401 91.9186C31.4401 89.4922 29.4731 87.5253 27.0467 87.5253H1.64752C0.737619 87.5253 -7.95459e-08 86.7876 0 85.8777L9.00189e-07 75.5808C9.79735e-07 74.6709 0.737617 73.9333 1.64752 73.9333H24.0195C25.9146 73.9333 27.7328 74.6825 29.0776 76.0177L44.0095 90.8426C45.367 92.1903 46.1305 94.0242 46.1305 95.9371Z" fill="white"/>
<path d="M150 45V35H170V45H150ZM150 85H140V45H150V55H170V45H180V85H170V65H150V85ZM200 85H190V35H200V85ZM240 85H230V35H240V45H250V55H240V85ZM270 85H260V65H250V55H260V35H270V85ZM290 45V35H310V45H290ZM290 85H280V45H290V55H310V45H320V85H310V65H290V85ZM350 85H340V45H330V35H360V45H350V85ZM380 85H370V35H380V85ZM400 45V35H420V45H400ZM400 75H390V45H400V75ZM430 75H420V45H430V75ZM420 75V85H400V75H420ZM450 85H440V35H450V45H460V55H450V85ZM480 85H470V65H460V55H470V35H480V85Z" fill="white"/>
</svg>
