<svg width="914" height="248" viewBox="0 0 914 248" fill="none" xmlns="http://www.w3.org/2000/svg">
<path fill-rule="evenodd" clip-rule="evenodd" d="M156.136 188.537C146.432 204.711 134.697 212 124 212C113.303 212 101.568 204.711 91.8635 188.537C82.3025 172.602 76 149.813 76 124C76 98.1867 82.3025 75.3982 91.8635 59.4633C101.568 43.2895 113.303 36 124 36C134.697 36 146.432 43.2895 156.136 59.4633C165.697 75.3982 172 98.1867 172 124C172 149.813 165.697 172.602 156.136 188.537ZM224 124C224 68.7715 179.228 24 124 24C68.7715 24 24 68.7715 24 124C24 179.228 68.7715 224 124 224C179.228 224 224 179.228 224 124ZM36 124C36 159.93 57.5326 190.83 88.3973 204.5C73.5982 186.289 64 157.013 64 124C64 90.9873 73.5982 61.7108 88.3973 43.4995C57.5326 57.1701 36 88.0704 36 124ZM212 124C212 159.93 190.467 190.83 159.603 204.5C174.402 186.289 184 157.013 184 124C184 90.9873 174.402 61.7108 159.603 43.4995C190.467 57.1701 212 88.0704 212 124Z" fill="white"/>
<path d="M124.076 154C123.13 154 122.33 153.315 122.101 152.397C121.371 149.471 119.972 146.359 117.906 143.063C115.458 139.104 111.969 135.432 107.438 132.047C103.496 129.068 99.5554 127.037 95.6144 125.953C94.681 125.697 94 124.869 94 123.901C94 122.952 94.6548 122.134 95.5674 121.873C99.4314 120.77 103.154 118.979 106.734 116.5C110.849 113.635 114.286 110.198 117.047 106.188C119.489 102.615 121.165 99.0816 122.076 95.5876C122.314 94.6723 123.12 94 124.066 94C125.023 94 125.834 94.6872 126.067 95.615C126.593 97.7096 127.414 99.8536 128.531 102.047C129.938 104.755 131.734 107.359 133.922 109.859C136.161 112.307 138.662 114.521 141.422 116.5C145.029 119.057 148.696 120.853 152.423 121.889C153.338 122.143 154 122.957 154 123.906C154 124.869 153.318 125.69 152.389 125.945C150.026 126.593 147.594 127.637 145.094 129.078C142.073 130.849 139.26 132.958 136.656 135.406C134.052 137.802 131.917 140.328 130.25 142.984C128.18 146.288 126.78 149.424 126.051 152.392C125.825 153.312 125.024 154 124.076 154Z" fill="white"/>
<path d="M828.553 166.176V81.696H851.337L870.665 134.944H872.201L871.177 81.696H889.609V166.176H867.593L847.369 110.624H845.833L846.985 166.176H828.553Z" fill="white"/>
<path d="M793.428 167.968C788.393 167.968 784.084 167.072 780.5 165.28C776.916 163.403 773.929 160.672 771.54 157.088C769.236 153.419 767.529 148.853 766.42 143.392C765.311 137.845 764.756 131.403 764.756 124.064C764.756 113.824 765.823 105.461 767.956 98.976C770.089 92.4907 773.289 87.712 777.556 84.64C781.823 81.568 787.156 80.032 793.556 80.032C798.505 80.032 802.815 80.8853 806.484 82.592C810.153 84.2987 813.183 86.944 815.572 90.528C818.047 94.0267 819.881 98.5493 821.076 104.096C822.27 109.557 822.868 116.043 822.868 123.552C822.868 131.061 822.27 137.632 821.076 143.264C819.881 148.811 818.047 153.419 815.572 157.088C813.183 160.757 810.153 163.488 806.484 165.28C802.815 167.072 798.463 167.968 793.428 167.968ZM793.556 152.864C795.519 152.864 797.182 151.797 798.548 149.664C799.999 147.531 801.065 144.373 801.748 140.192C802.43 136.011 802.772 130.891 802.772 124.832C802.772 118.432 802.388 113.056 801.62 108.704C800.937 104.352 799.87 101.024 798.42 98.72C797.054 96.3307 795.348 95.136 793.3 95.136C791.508 95.136 789.972 96.2453 788.692 98.464C787.412 100.597 786.43 103.797 785.748 108.064C785.15 112.331 784.852 117.579 784.852 123.808C784.852 128.587 785.023 132.811 785.364 136.48C785.705 140.064 786.217 143.093 786.9 145.568C787.668 147.957 788.607 149.792 789.716 151.072C790.825 152.267 792.105 152.864 793.556 152.864Z" fill="white"/>
<path d="M739.043 166.176V81.696H759.011V166.176H739.043Z" fill="white"/>
<path d="M700.43 166.176V81.696H720.142V166.176H700.43ZM683.79 97.696V81.696H736.91V97.696H683.79Z" fill="white"/>
<path d="M629.534 166.176L645.15 81.696H675.742L691.23 166.176H669.726L661.022 97.056H659.23L650.142 166.176H629.534ZM644.382 152.096V139.552H677.406V152.096H644.382Z" fill="white"/>
<path d="M566.277 166.176V81.696H589.061L608.389 134.944H609.925L608.901 81.696H627.333V166.176H605.317L585.093 110.624H583.557L584.709 166.176H566.277Z" fill="white"/>
<path d="M509.66 166.176V81.696H529.372V166.176H509.66ZM493.02 97.696V81.696H546.14V97.696H493.02Z" fill="white"/>
<path d="M429.763 166.176V81.696H452.547L471.875 134.944H473.411L472.387 81.696H490.819V166.176H468.803L448.579 110.624H447.043L448.195 166.176H429.763Z" fill="white"/>
<path d="M382.508 166.176V81.696H402.348V166.176H382.508ZM396.076 166.176V150.432H425.26V166.176H396.076ZM396.076 130.464V115.872H421.804V130.464H396.076ZM396.076 97.44V81.696H425.26V97.44H396.076Z" fill="white"/>
<path d="M344.406 167.968C338.518 167.968 333.782 166.005 330.198 162.08C326.614 158.069 324.011 152.779 322.39 146.208C320.854 139.552 320.086 132.128 320.086 123.936C320.086 117.707 320.555 111.947 321.494 106.656C322.433 101.365 324.054 96.7574 326.358 92.832C328.662 88.8214 331.777 85.7067 335.702 83.488C339.713 81.2694 344.79 80.16 350.934 80.16C356.566 80.16 361.174 81.056 364.758 82.848C368.342 84.64 371.073 87.0294 372.95 90.016C374.827 92.9174 375.979 96.2027 376.406 99.872C376.833 103.456 376.662 107.125 375.894 110.88L357.462 112.672C357.889 109.515 357.846 106.613 357.334 103.968C356.907 101.323 356.054 99.232 354.774 97.696C353.494 96.0747 351.83 95.264 349.782 95.264C347.563 95.264 345.686 96.2454 344.15 98.208C342.699 100.171 341.59 103.2 340.822 107.296C340.139 111.392 339.798 116.64 339.798 123.04C339.798 128.757 340.054 133.536 340.566 137.376C341.078 141.216 341.761 144.245 342.614 146.464C343.553 148.683 344.619 150.261 345.814 151.2C347.094 152.139 348.417 152.608 349.782 152.608C351.659 152.608 353.238 152.011 354.518 150.816C355.883 149.621 356.95 147.829 357.718 145.44C358.571 143.051 359.126 140.277 359.382 137.12H349.654V123.296H376.79V166.176H365.27V141.6H363.222C363.051 146.891 362.369 151.541 361.174 155.552C360.065 159.477 358.145 162.549 355.414 164.768C352.769 166.901 349.099 167.968 344.406 167.968Z" fill="white"/>
<path d="M259 166.176L274.616 81.696H305.208L320.696 166.176H299.192L290.488 97.056H288.696L279.608 166.176H259ZM273.848 152.096V139.552H306.872V152.096H273.848Z" fill="white"/>
</svg>
