<svg width="26" height="27" viewBox="0 0 26 27" fill="none" xmlns="http://www.w3.org/2000/svg">
<g filter="url(#filter0_d_13338_9899)">
<path fill-rule="evenodd" clip-rule="evenodd" d="M10.7625 6.31971C13.163 3.2358 16.9121 1.25018 21.125 1.25C21.2908 1.24999 21.4497 1.31584 21.5669 1.43305C21.6842 1.55026 21.75 1.70924 21.75 1.875C21.75 6.08803 19.7644 9.8375 16.6804 12.2382C16.7262 12.5274 16.75 12.8236 16.75 13.125C16.75 16.2316 14.2316 18.75 11.125 18.75C10.7798 18.75 10.5 18.4702 10.5 18.125V14.682C10.4923 14.6765 10.4847 14.6707 10.4772 14.6648C9.68386 14.0357 8.96499 13.3169 8.33593 12.5235C8.32981 12.5158 8.32388 12.508 8.31816 12.5H4.875C4.52982 12.5 4.25 12.2202 4.25 11.875C4.25 8.7684 6.7684 6.25 9.875 6.25C10.1766 6.25 10.4731 6.2738 10.7625 6.31971ZM15.5 5.625C14.4645 5.625 13.625 6.46447 13.625 7.5C13.625 8.53553 14.4645 9.375 15.5 9.375C16.5355 9.375 17.375 8.53553 17.375 7.5C17.375 6.46447 16.5355 5.625 15.5 5.625Z" fill="#1E1E1E"/>
<path d="M7.38364 14.3682C7.66031 14.1618 7.71728 13.7702 7.51089 13.4935C7.30449 13.2168 6.91288 13.1599 6.63621 13.3663C5.56841 14.1628 4.875 15.438 4.875 16.8749C4.875 17.1046 4.89274 17.3305 4.92705 17.5512C4.96882 17.8201 5.17979 18.0311 5.44869 18.0729C5.66947 18.1072 5.89537 18.1249 6.125 18.1249C7.56195 18.1249 8.8371 17.4315 9.63367 16.3637C9.84006 16.087 9.78309 15.6954 9.50642 15.489C9.22974 15.2826 8.83814 15.3396 8.63174 15.6163C8.06094 16.3814 7.15068 16.8749 6.125 16.8749C6.125 15.8493 6.61848 14.939 7.38364 14.3682Z" fill="#1E1E1E"/>
</g>
<defs>
<filter id="filter0_d_13338_9899" x="-1" y="0" width="28" height="28" filterUnits="userSpaceOnUse" color-interpolation-filters="sRGB">
<feFlood flood-opacity="0" result="BackgroundImageFix"/>
<feColorMatrix in="SourceAlpha" type="matrix" values="0 0 0 0 0 0 0 0 0 0 0 0 0 0 0 0 0 0 127 0" result="hardAlpha"/>
<feOffset dy="4"/>
<feGaussianBlur stdDeviation="2"/>
<feComposite in2="hardAlpha" operator="out"/>
<feColorMatrix type="matrix" values="0 0 0 0 0 0 0 0 0 0 0 0 0 0 0 0 0 0 0.25 0"/>
<feBlend mode="normal" in2="BackgroundImageFix" result="effect1_dropShadow_13338_9899"/>
<feBlend mode="normal" in="SourceGraphic" in2="effect1_dropShadow_13338_9899" result="shape"/>
</filter>
</defs>
</svg>
